<svg width="36" height="36" viewBox="0 0 36 36" fill="none" xmlns="http://www.w3.org/2000/svg">
<path d="M7.875 5.625V28.125H28.125V5.625H7.875ZM7.875 3.375H28.125C29.3676 3.375 30.375 4.38236 30.375 5.625V28.125C30.375 29.3676 29.3676 30.375 28.125 30.375H7.875C6.63236 30.375 5.625 29.3676 5.625 28.125V5.625C5.625 4.38236 6.63236 3.375 7.875 3.375Z" fill="white"/>
<path d="M23.5996 8.9571C22.9783 8.9571 22.4746 8.45342 22.4746 7.8321C22.4746 7.21078 22.9783 6.7071 23.5996 6.7071H25.9084C26.5297 6.7071 27.0334 7.21078 27.0334 7.8321C27.0334 8.45342 26.5297 8.9571 25.9084 8.9571H23.5996Z" fill="white"/>
<path d="M20.261 9C19.6397 9 19.136 8.49632 19.136 7.875C19.136 7.25368 19.6397 6.75 20.261 6.75C20.8823 6.75 21.386 7.25368 21.386 7.875C21.386 8.49632 20.8823 9 20.261 9ZM16.8991 9C16.2778 9 15.7741 8.49632 15.7741 7.875C15.7741 7.25368 16.2778 6.75 16.8991 6.75C17.5204 6.75 18.0241 7.25368 18.0241 7.875C18.0241 8.49632 17.5204 9 16.8991 9ZM9.00587 29.2403C9.00587 28.619 9.50955 28.1153 10.1309 28.1153C10.7522 28.1153 11.2559 28.619 11.2559 29.2403L11.25 31.4964C11.25 32.1177 10.7463 32.6214 10.125 32.6214C9.50368 32.6214 9 32.1177 9 31.4964L9.00587 29.2403ZM24.7547 29.2486C24.7547 28.6273 25.2583 28.1236 25.8797 28.1236C26.501 28.1236 27.0047 28.6273 27.0047 29.2486V31.4964C27.0047 32.1177 26.501 32.6214 25.8797 32.6214C25.2583 32.6214 24.7547 32.1177 24.7547 31.4964V29.2486ZM18 27C14.2721 27 11.25 23.9779 11.25 20.25C11.25 16.5221 14.2721 13.5 18 13.5C21.7279 13.5 24.75 16.5221 24.75 20.25C24.75 23.9779 21.7279 27 18 27ZM18 24.75C20.4853 24.75 22.5 22.7353 22.5 20.25C22.5 17.7647 20.4853 15.75 18 15.75C15.5147 15.75 13.5 17.7647 13.5 20.25C13.5 22.7353 15.5147 24.75 18 24.75Z" fill="white"/>
<path d="M18 16.875C18.6213 16.875 19.125 17.3787 19.125 18C19.125 18.6213 18.6213 19.125 18 19.125C17.3787 19.125 16.875 19.6287 16.875 20.25C16.875 20.8713 16.3713 21.375 15.75 21.375C15.1287 21.375 14.625 20.8713 14.625 20.25C14.625 18.386 16.136 16.875 18 16.875Z" fill="white"/>
<path d="M6.75 12.3975V10.1475H29.25V12.3975H6.75Z" fill="white"/>
</svg>
