<svg width="31" height="26" viewBox="0 0 31 26" fill="none" xmlns="http://www.w3.org/2000/svg">
<path d="M18.1776 19.8443C16.6362 19.8428 15.3855 21.0911 15.3839 22.6325C15.3824 24.1739 16.6308 25.4247 18.1722 25.4262C19.7136 25.4277 20.9643 24.1793 20.9659 22.6379V22.6353C20.9644 21.0955 19.7173 19.8473 18.1776 19.8443Z" fill="white"/>
<path d="M23.1278 6.4797C23.061 6.46677 22.9932 6.46019 22.9251 6.46009H5.93181L5.66267 4.65955C5.49499 3.46378 4.47216 2.5741 3.26466 2.57373H1.07655C0.481978 2.57373 0 3.05571 0 3.65028C0 4.24485 0.481978 4.72683 1.07655 4.72683H3.26734C3.40423 4.72583 3.52008 4.82776 3.53648 4.96369L5.19436 16.3267C5.42166 17.7705 6.66363 18.8357 8.12528 18.8404H19.3241C20.7313 18.8423 21.9454 17.8532 22.2281 16.4747L23.9802 7.74117C24.0931 7.15743 23.7115 6.59266 23.1278 6.4797Z" fill="white"/>
<path d="M11.3405 22.5157C11.2749 21.0196 10.0401 19.8418 8.54246 19.847C7.00233 19.9092 5.80425 21.2082 5.86648 22.7483C5.9262 24.2261 7.12833 25.4007 8.60707 25.4262H8.67435C10.2143 25.3587 11.4079 24.0557 11.3405 22.5157Z" fill="white"/>
<circle cx="24" cy="7" r="6" fill="#EA7173" stroke="#F3FFF9" stroke-width="2"/>
</svg>
