<svg width="30" height="27" viewBox="0 0 30 27" fill="none" xmlns="http://www.w3.org/2000/svg">
<path d="M14.9041 0.199806C19.4689 0.199806 23.9487 1.28746 27.9812 3.34531L28.782 3.77012L28.7869 3.77305L29.2703 4.05625L29.2791 4.06211L29.2869 4.06797C29.4204 4.16586 29.5162 4.30887 29.5642 4.45762C29.6112 4.60329 29.6181 4.77612 29.5417 4.9293L26.158 12.0211L26.156 12.026C26.0953 12.1446 26.0127 12.2449 25.905 12.315C25.7965 12.3857 25.6732 12.4185 25.5427 12.4186C25.5197 12.4186 25.468 12.4186 25.4138 12.4098C25.3744 12.4034 25.3122 12.3877 25.2537 12.3482C24.9395 12.2321 24.6212 12.0986 24.2917 11.9791V24.0367C24.2916 24.2599 24.1472 24.4504 24.0378 24.5572C24.0114 24.5831 23.9478 24.6321 23.8572 24.693C23.7615 24.7572 23.6254 24.8421 23.446 24.94C23.0866 25.1363 22.5522 25.3865 21.822 25.6324C20.3614 26.1244 18.115 26.6002 14.9041 26.6002C11.6933 26.6002 9.44765 26.1243 7.98706 25.6324C7.25688 25.3865 6.72245 25.1363 6.36304 24.94C6.18363 24.8421 6.04759 24.7572 5.9519 24.693C5.88046 24.645 5.82662 24.6034 5.7937 24.5758C5.58406 24.4348 5.51742 24.2239 5.51733 24.0367V11.9791C5.19554 12.0895 4.89019 12.2017 4.55835 12.3453C4.49884 12.3865 4.43541 12.4032 4.39526 12.4098C4.34106 12.4186 4.28935 12.4186 4.26636 12.4186C3.99766 12.4184 3.79502 12.2824 3.66675 12.0943L3.65796 12.0816L3.65112 12.068L0.266357 4.97715L0.261475 4.96641C0.200307 4.81676 0.179393 4.65221 0.224365 4.49375C0.270267 4.3322 0.379063 4.1979 0.538818 4.1041L1.02222 3.81992L1.02612 3.81797C5.26285 1.43758 10.0351 0.199886 14.9041 0.199806ZM19.4304 1.90977C19.1312 4.1296 17.2516 5.80039 14.9041 5.80039C12.5564 5.80016 10.6785 4.08573 10.3777 1.90977C7.35589 2.43266 4.4298 3.44004 1.77417 4.93223L4.61108 10.8814C4.75436 10.8305 4.90152 10.7795 5.04761 10.7291C5.20717 10.674 5.36516 10.6185 5.51733 10.5641V7.76328H6.88452V23.6793C7.66339 24.1009 10.0974 25.2544 14.9041 25.2545C19.7111 25.2545 22.1457 24.1009 22.9246 23.6793V7.76328H24.2917V10.5641C24.4439 10.6185 24.6019 10.674 24.7615 10.7291C24.9077 10.7795 25.0546 10.8314 25.198 10.8824L28.0808 4.93223C25.3785 3.43988 22.4516 2.43244 19.4304 1.90977ZM14.9041 1.54551C13.8704 1.54553 12.7928 1.62812 11.7449 1.71641C11.9702 3.26704 13.2892 4.45446 14.9041 4.45469C16.525 4.45469 17.885 3.26221 18.071 1.71738C17.0208 1.62887 15.9402 1.54551 14.9041 1.54551Z" fill="white" stroke="white" stroke-width="0.4"/>
</svg>
