<svg width="8" height="33" viewBox="0 0 8 33" fill="none" xmlns="http://www.w3.org/2000/svg">
<path d="M19.9155 9.61811H18.5026C18.3225 9.61811 18.1497 9.68968 18.0223 9.81706C17.895 9.94444 17.8234 10.1172 17.8234 10.2974V16.6008C17.576 16.4937 17.3115 16.4316 17.0423 16.4174L15.6159 1.60302C15.5736 1.16403 15.3693 0.756541 15.0427 0.460129C14.7161 0.163717 14.2908 -0.000337543 13.8498 5.21443e-07H6.74491C6.30389 -0.000337543 5.87857 0.163717 5.55202 0.460129C5.22546 0.756541 5.02111 1.16403 4.97887 1.60302L3.55245 16.4174C3.28325 16.4316 3.01873 16.4937 2.77132 16.6008V10.2974C2.77132 10.1172 2.69976 9.94444 2.57237 9.81706C2.44499 9.68968 2.27222 9.61811 2.09208 9.61811H0.679245C0.499098 9.61811 0.32633 9.68968 0.198946 9.81706C0.0715633 9.94444 0 10.1172 0 10.2974C0 10.4775 0.0715633 10.6503 0.198946 10.7777C0.32633 10.905 0.499098 10.9766 0.679245 10.9766H1.41283V18.6792C1.41463 19.2798 1.65444 19.8551 2.07971 20.2791C2.50497 20.703 3.08099 20.9411 3.68151 20.9411H8.43623V25.0166C8.43623 25.1968 8.50779 25.3695 8.63517 25.4969C8.76256 25.6243 8.93532 25.6958 9.11547 25.6958H9.71321V27.5094L4.8566 31.4083C4.78683 31.4644 4.72882 31.5336 4.68591 31.6122C4.643 31.6907 4.61603 31.777 4.60656 31.866C4.5971 31.955 4.60531 32.045 4.63073 32.1308C4.65616 32.2166 4.69829 32.2966 4.75472 32.366C4.86777 32.505 5.03112 32.5936 5.20922 32.6127C5.38732 32.6318 5.56574 32.5798 5.70566 32.4679L9.71321 29.2483V31.9653C9.71321 32.1454 9.78477 32.3182 9.91215 32.4456C10.0395 32.573 10.2123 32.6445 10.3925 32.6445C10.5726 32.6445 10.7454 32.573 10.8728 32.4456C11.0001 32.3182 11.0717 32.1454 11.0717 31.9653V29.2483L15.0792 32.4679C15.1988 32.5638 15.3472 32.6165 15.5004 32.6174C15.6019 32.6177 15.7021 32.5953 15.7938 32.5518C15.8855 32.5083 15.9663 32.4448 16.0302 32.366C16.0866 32.2966 16.1287 32.2166 16.1542 32.1308C16.1796 32.045 16.1878 31.955 16.1783 31.866C16.1689 31.777 16.1419 31.6907 16.099 31.6122C16.0561 31.5336 15.9981 31.4644 15.9283 31.4083L11.0921 27.5094V25.723H11.6966C11.8768 25.723 12.0495 25.6515 12.1769 25.5241C12.3043 25.3967 12.3758 25.2239 12.3758 25.0438V20.9683H16.9132C17.2129 20.9683 17.5095 20.909 17.7861 20.7937C18.0627 20.6784 18.3137 20.5095 18.5247 20.2966C18.7356 20.0838 18.9023 19.8313 19.0151 19.5537C19.1279 19.2761 19.1846 18.9789 19.1819 18.6792V10.9766H19.9155C20.0956 10.9766 20.2684 10.905 20.3958 10.7777C20.5232 10.6503 20.5947 10.4775 20.5947 10.2974C20.5947 10.1172 20.5232 9.94444 20.3958 9.81706C20.2684 9.68968 20.0956 9.61811 19.9155 9.61811ZM6.33057 1.73208C6.34071 1.62939 6.38881 1.53419 6.46544 1.4651C6.54207 1.39601 6.64173 1.35799 6.74491 1.35849H13.8498C13.953 1.35799 14.0526 1.39601 14.1293 1.4651C14.2059 1.53419 14.254 1.62939 14.2642 1.73208L15.677 16.4106H4.91774L6.33057 1.73208ZM11.0174 24.3645H9.81509V20.9683H11.0174V24.3645ZM16.9132 19.6098H3.68151C3.55583 19.6207 3.42926 19.6053 3.30983 19.5647C3.1904 19.5241 3.08072 19.4591 2.98775 19.3738C2.89478 19.2886 2.82055 19.1849 2.76977 19.0694C2.71899 18.9539 2.69277 18.8292 2.69277 18.703C2.69277 18.5769 2.71899 18.4521 2.76977 18.3366C2.82055 18.2211 2.89478 18.1175 2.98775 18.0322C3.08072 17.947 3.1904 17.8819 3.30983 17.8413C3.42926 17.8007 3.55583 17.7853 3.68151 17.7962H16.9132C17.0389 17.7853 17.1655 17.8007 17.2849 17.8413C17.4043 17.8819 17.514 17.947 17.607 18.0322C17.6999 18.1175 17.7742 18.2211 17.8249 18.3366C17.8757 18.4521 17.902 18.5769 17.902 18.703C17.902 18.8292 17.8757 18.9539 17.8249 19.0694C17.7742 19.1849 17.6999 19.2886 17.607 19.3738C17.514 19.4591 17.4043 19.5241 17.2849 19.5647C17.1655 19.6053 17.0389 19.6207 16.9132 19.6098Z" fill="white"/>
</svg>
