<svg width="21" height="21" viewBox="0 0 21 21" fill="none" xmlns="http://www.w3.org/2000/svg">
<path d="M20.9386 10.7893C20.8824 10.9263 20.7868 11.0436 20.664 11.1263C20.5412 11.2091 20.3967 11.2536 20.2486 11.2543H17.9986V18.7543C17.9986 19.3511 17.7616 19.9234 17.3396 20.3453C16.9177 20.7673 16.3454 21.0043 15.7486 21.0043H12.7486C12.5497 21.0043 12.359 20.9253 12.2183 20.7847C12.0777 20.644 11.9986 20.4533 11.9986 20.2543V15.7543C11.9986 15.5554 11.9196 15.3647 11.779 15.224C11.6383 15.0834 11.4476 15.0043 11.2486 15.0043H9.74864C9.54973 15.0043 9.35896 15.0834 9.21831 15.224C9.07766 15.3647 8.99864 15.5554 8.99864 15.7543V20.2543C8.99864 20.4533 8.91962 20.644 8.77897 20.7847C8.63832 20.9253 8.44755 21.0043 8.24864 21.0043H5.24864C4.6519 21.0043 4.07961 20.7673 3.65765 20.3453C3.23569 19.9234 2.99864 19.3511 2.99864 18.7543V11.2543H0.74864C0.600571 11.2536 0.456034 11.2091 0.333243 11.1263C0.210453 11.0436 0.114905 10.9263 0.0586397 10.7893C0.00120517 10.6528 -0.0144868 10.5022 0.0135438 10.3567C0.0415744 10.2112 0.112072 10.0773 0.21614 9.97185L9.96614 0.221849C10.0359 0.151552 10.1188 0.0957567 10.2102 0.0576802C10.3016 0.0196037 10.3996 0 10.4986 0C10.5976 0 10.6957 0.0196037 10.7871 0.0576802C10.8785 0.0957567 10.9614 0.151552 11.0311 0.221849L20.7811 9.97185C20.8852 10.0773 20.9557 10.2112 20.9837 10.3567C21.0118 10.5022 20.9961 10.6528 20.9386 10.7893Z" fill="#C5C5C5"/>
</svg>
