<svg width="45" height="45" viewBox="0 0 45 45" fill="none" xmlns="http://www.w3.org/2000/svg">
<path d="M22.5 45C34.9264 45 45 34.9264 45 22.5C45 10.0736 34.9264 0 22.5 0C10.0736 0 0 10.0736 0 22.5C0 34.9264 10.0736 45 22.5 45Z" fill="#4AB7B6"/>
<path fill-rule="evenodd" clip-rule="evenodd" d="M22 13C18.13 13 15 16.13 15 20C15 24.17 19.42 29.92 21.24 32.11C21.64 32.59 22.37 32.59 22.77 32.11C24.58 29.92 29 24.17 29 20C29 16.13 25.87 13 22 13ZM17 20C17 17.24 19.24 15 22 15C24.76 15 27 17.24 27 20C27 22.88 24.12 27.19 22 29.88C19.92 27.21 17 22.85 17 20ZM19.5 20C19.5 21.38 20.62 22.5 22 22.5C23.38 22.5 24.5 21.38 24.5 20C24.5 18.62 23.38 17.5 22 17.5C20.62 17.5 19.5 18.62 19.5 20Z" fill="white"/>
</svg>
