<svg width="92" height="17" viewBox="0 0 92 17" fill="none" xmlns="http://www.w3.org/2000/svg">
<path d="M7.938 12.6001V9.67979e-05H10.368V12.6001H7.938ZM1.04308e-06 12.6001V9.67979e-05H2.43V12.6001H1.04308e-06ZM2.106 7.1461V5.1841H8.352V7.1461H2.106ZM13.6725 16.5601L15.8865 11.5921H15.3465L11.7105 3.5821H14.3385L16.9485 9.3781L19.2885 3.5821H21.8805L16.2465 16.5601H13.6725ZM23.1617 16.5601V3.5821H25.3217L25.5737 4.8421C25.7657 4.5781 25.9937 4.3381 26.2577 4.1221C26.5217 3.8941 26.8397 3.7141 27.2117 3.5821C27.5837 3.4381 28.0157 3.3661 28.5077 3.3661C29.3597 3.3661 30.1097 3.5761 30.7577 3.9961C31.4057 4.4041 31.9157 4.9681 32.2877 5.6881C32.6717 6.3961 32.8637 7.2061 32.8637 8.1181C32.8637 9.0181 32.6717 9.8221 32.2877 10.5301C31.9037 11.2381 31.3877 11.7961 30.7397 12.2041C30.0917 12.6121 29.3477 12.8161 28.5077 12.8161C27.8477 12.8161 27.2717 12.6961 26.7797 12.4561C26.2877 12.2041 25.8917 11.8621 25.5917 11.4301V16.5601H23.1617ZM27.9497 10.6921C28.4297 10.6921 28.8497 10.5841 29.2097 10.3681C29.5817 10.1521 29.8697 9.8521 30.0737 9.4681C30.2897 9.0721 30.3977 8.6161 30.3977 8.1001C30.3977 7.5961 30.2897 7.1461 30.0737 6.7501C29.8697 6.3541 29.5817 6.0481 29.2097 5.8321C28.8497 5.6041 28.4297 5.4901 27.9497 5.4901C27.4817 5.4901 27.0617 5.6041 26.6897 5.8321C26.3177 6.0481 26.0297 6.3541 25.8257 6.7501C25.6217 7.1341 25.5197 7.5841 25.5197 8.1001C25.5197 8.6041 25.6217 9.0541 25.8257 9.4501C26.0297 9.8461 26.3177 10.1521 26.6897 10.3681C27.0617 10.5841 27.4817 10.6921 27.9497 10.6921ZM39.0727 12.8161C38.1607 12.8161 37.3507 12.6241 36.6427 12.2401C35.9467 11.8441 35.4007 11.2981 35.0047 10.6021C34.6207 9.9061 34.4287 9.0961 34.4287 8.1721C34.4287 7.2361 34.6207 6.4081 35.0047 5.6881C35.3887 4.9681 35.9287 4.4041 36.6247 3.9961C37.3327 3.5761 38.1487 3.3661 39.0727 3.3661C39.9727 3.3661 40.7587 3.5641 41.4307 3.9601C42.1027 4.3441 42.6247 4.8721 42.9967 5.5441C43.3807 6.2161 43.5727 6.9781 43.5727 7.8301C43.5727 7.9501 43.5727 8.0821 43.5727 8.2261C43.5727 8.3701 43.5607 8.5261 43.5367 8.6941H36.1567V7.2001H41.1067C41.0827 6.6361 40.8787 6.1861 40.4947 5.8501C40.1227 5.5141 39.6547 5.3461 39.0907 5.3461C38.6707 5.3461 38.2867 5.4421 37.9387 5.6341C37.5907 5.8141 37.3147 6.0961 37.1107 6.4801C36.9187 6.8521 36.8227 7.3261 36.8227 7.9021V8.4241C36.8227 8.9161 36.9127 9.3421 37.0927 9.7021C37.2847 10.0621 37.5487 10.3441 37.8847 10.5481C38.2327 10.7401 38.6227 10.8361 39.0547 10.8361C39.4987 10.8361 39.8647 10.7401 40.1527 10.5481C40.4527 10.3561 40.6807 10.1041 40.8367 9.7921H43.3207C43.1527 10.3561 42.8647 10.8661 42.4567 11.3221C42.0607 11.7781 41.5747 12.1441 40.9987 12.4201C40.4347 12.6841 39.7927 12.8161 39.0727 12.8161ZM45.3048 12.6001V3.5821H47.4648L47.6808 5.2561C47.9088 4.8721 48.1788 4.5421 48.4908 4.2661C48.8148 3.9781 49.1868 3.7561 49.6068 3.6001C50.0388 3.4441 50.5068 3.3661 51.0108 3.3661V5.9401H50.2548C49.8828 5.9401 49.5408 5.9821 49.2288 6.0661C48.9288 6.1501 48.6648 6.2881 48.4368 6.4801C48.2088 6.6721 48.0348 6.9301 47.9148 7.2541C47.7948 7.5781 47.7348 7.9861 47.7348 8.4781V12.6001H45.3048Z" fill="#FDAA5D"/>
<path d="M52.4133 12.6001V9.67979e-05H55.3113L59.1993 7.8481L63.0333 9.67979e-05H65.9313V12.6001H63.5013V4.1221L60.1353 10.8181H58.2093L54.8433 4.1221V12.6001H52.4133ZM71.1582 12.8161C70.4022 12.8161 69.7782 12.6961 69.2862 12.4561C68.7942 12.2041 68.4282 11.8741 68.1882 11.4661C67.9482 11.0461 67.8282 10.5901 67.8282 10.0981C67.8282 9.5461 67.9662 9.0601 68.2422 8.6401C68.5302 8.2201 68.9622 7.8961 69.5382 7.6681C70.1142 7.4281 70.8342 7.3081 71.6982 7.3081H73.9482C73.9482 6.8641 73.8882 6.4981 73.7682 6.2101C73.6482 5.9221 73.4562 5.7061 73.1922 5.5621C72.9402 5.4181 72.6102 5.3461 72.2022 5.3461C71.7462 5.3461 71.3562 5.4481 71.0322 5.6521C70.7082 5.8561 70.5102 6.1621 70.4382 6.5701H68.0622C68.1342 5.9101 68.3502 5.3461 68.7102 4.8781C69.0822 4.3981 69.5682 4.0261 70.1682 3.7621C70.7802 3.4981 71.4642 3.3661 72.2202 3.3661C73.0722 3.3661 73.8102 3.5101 74.4342 3.7981C75.0582 4.0861 75.5382 4.5001 75.8742 5.0401C76.2102 5.5801 76.3782 6.2461 76.3782 7.0381V12.6001H74.3262L74.0562 11.2141C73.9242 11.4541 73.7682 11.6701 73.5882 11.8621C73.4082 12.0541 73.1982 12.2221 72.9582 12.3661C72.7182 12.5101 72.4482 12.6181 72.1482 12.6901C71.8482 12.7741 71.5182 12.8161 71.1582 12.8161ZM71.7342 10.9441C72.0462 10.9441 72.3222 10.8901 72.5622 10.7821C72.8142 10.6621 73.0302 10.5061 73.2102 10.3141C73.3902 10.1101 73.5282 9.8821 73.6242 9.6301C73.7322 9.3661 73.8042 9.0901 73.8402 8.8021V8.7841H71.9862C71.6142 8.7841 71.3082 8.8321 71.0682 8.9281C70.8402 9.0241 70.6662 9.1561 70.5462 9.3241C70.4382 9.4801 70.3842 9.6661 70.3842 9.8821C70.3842 10.1101 70.4382 10.3021 70.5462 10.4581C70.6662 10.6141 70.8282 10.7341 71.0322 10.8181C71.2362 10.9021 71.4702 10.9441 71.7342 10.9441ZM78.3875 12.6001V3.5821H80.5475L80.7635 5.2561C80.9915 4.8721 81.2615 4.5421 81.5735 4.2661C81.8975 3.9781 82.2695 3.7561 82.6895 3.6001C83.1215 3.4441 83.5895 3.3661 84.0935 3.3661V5.9401H83.3375C82.9655 5.9401 82.6235 5.9821 82.3115 6.0661C82.0115 6.1501 81.7475 6.2881 81.5195 6.4801C81.2915 6.6721 81.1175 6.9301 80.9975 7.2541C80.8775 7.5781 80.8175 7.9861 80.8175 8.4781V12.6001H78.3875ZM89.528 12.6001C88.892 12.6001 88.334 12.5041 87.854 12.3121C87.386 12.1081 87.02 11.7781 86.756 11.3221C86.492 10.8541 86.36 10.2181 86.36 9.4141V5.6161H84.812V3.5821H86.36L86.63 1.1341H88.79V3.5821H91.166V5.6161H88.79V9.4501C88.79 9.8581 88.88 10.1401 89.06 10.2961C89.24 10.4521 89.546 10.5301 89.978 10.5301H91.13V12.6001H89.528Z" fill="#4AB7B6"/>
</svg>
