<svg width="38" height="38" viewBox="0 0 38 38" fill="none" xmlns="http://www.w3.org/2000/svg">
<rect x="1.5" y="1.5" width="35" height="35" rx="17.5" fill="#E8EFF3" stroke="white" stroke-width="3"/>
<path d="M26.5104 23.1796C25.1512 20.913 24.3333 19.9233 24.3333 17.4761C24.3319 16.1943 23.8693 14.9557 23.0299 13.9869C22.1905 13.0182 21.0305 12.3838 19.7619 12.1999V12.1428C19.7619 11.9407 19.6816 11.7469 19.5388 11.604C19.3959 11.4611 19.2021 11.3809 19 11.3809C18.7979 11.3809 18.6041 11.4611 18.4613 11.604C18.3184 11.7469 18.2381 11.9407 18.2381 12.1428V12.2031C16.9617 12.4448 15.8085 13.1215 14.9749 14.118C14.1414 15.1144 13.6791 16.369 13.6667 17.6681C13.6667 19.9233 12.7051 21.1531 11.4896 23.1796C11.4203 23.2952 11.3829 23.4272 11.3813 23.5619C11.3796 23.6967 11.4137 23.8295 11.4801 23.9468C11.5465 24.064 11.6429 24.1616 11.7593 24.2295C11.8757 24.2974 12.0081 24.3332 12.1429 24.3332H25.8572C25.9919 24.3332 26.1243 24.2974 26.2407 24.2295C26.3572 24.1616 26.4535 24.064 26.5199 23.9467C26.5864 23.8295 26.6205 23.6966 26.6188 23.5619C26.6171 23.4271 26.5797 23.2952 26.5104 23.1796Z" fill="#EA7173"/>
<path d="M20.5238 25.0952H17.4762C17.2741 25.0952 17.0803 25.1755 16.9375 25.3184C16.7946 25.4613 16.7143 25.6551 16.7143 25.8571C16.7143 26.0592 16.7946 26.253 16.9375 26.3959C17.0803 26.5388 17.2741 26.619 17.4762 26.619H20.5238C20.7259 26.619 20.9197 26.5388 21.0626 26.3959C21.2055 26.253 21.2857 26.0592 21.2857 25.8571C21.2857 25.6551 21.2055 25.4613 21.0626 25.3184C20.9197 25.1755 20.7259 25.0952 20.5238 25.0952Z" fill="#EA7173"/>
</svg>
