<svg width="16" height="16" viewBox="0 0 16 16" fill="none" xmlns="http://www.w3.org/2000/svg">
<path d="M4.11999 15.0001C3.99635 15.0005 3.87419 14.9732 3.76242 14.9203C3.65066 14.8675 3.55212 14.7903 3.47401 14.6944C3.3959 14.5986 3.34018 14.4865 3.31094 14.3664C3.2817 14.2462 3.27967 14.1211 3.30499 14.0001L3.96999 10.1101L1.14499 7.36508C1.0343 7.25695 0.956044 7.12002 0.919053 6.96977C0.882062 6.81952 0.887811 6.66191 0.935651 6.51475C0.983491 6.36759 1.07152 6.23674 1.18979 6.13696C1.30806 6.03718 1.45188 5.97245 1.60499 5.95008L5.49999 5.38508L7.24499 1.84508C7.31229 1.70312 7.41849 1.58317 7.55125 1.49918C7.68402 1.41519 7.83789 1.37061 7.99499 1.37061C8.15209 1.37061 8.30597 1.41519 8.43873 1.49918C8.5715 1.58317 8.6777 1.70312 8.74499 1.84508L10.5 5.38508L14.405 5.95508C14.5581 5.97745 14.7019 6.04218 14.8202 6.14196C14.9385 6.24174 15.0265 6.37259 15.0743 6.51975C15.1222 6.66691 15.1279 6.82452 15.0909 6.97477C15.0539 7.12502 14.9757 7.26195 14.865 7.37008L12.04 10.1251L12.695 14.0001C12.7211 14.1519 12.7044 14.3079 12.6469 14.4508C12.5893 14.5936 12.4932 14.7176 12.3691 14.809C12.2451 14.9003 12.0982 14.9553 11.9447 14.9679C11.7912 14.9804 11.6372 14.95 11.5 14.8801L7.99999 13.0451L4.49999 14.8801C4.38503 14.9505 4.25456 14.9917 4.11999 15.0001ZM2.09499 6.89008L4.73499 9.46508C4.83199 9.55866 4.90459 9.67459 4.94643 9.80272C4.98827 9.93085 4.99807 10.0673 4.97499 10.2001L4.34999 13.8301L7.61499 12.1151C7.73379 12.0529 7.86589 12.0204 7.99999 12.0204C8.13409 12.0204 8.26619 12.0529 8.38499 12.1151L11.65 13.8301L11.025 10.1951C11.0019 10.0623 11.0117 9.92585 11.0536 9.79772C11.0954 9.66959 11.168 9.55366 11.265 9.46008L13.905 6.88508L10.255 6.35508C10.1217 6.33564 9.99517 6.28406 9.88628 6.20479C9.7774 6.12552 9.68944 6.02094 9.62999 5.90008L7.99999 2.60008L6.36999 5.90508C6.31055 6.02594 6.22259 6.13052 6.1137 6.20979C6.00481 6.28906 5.87827 6.34064 5.74499 6.36008L2.09499 6.89008Z" fill="#FFA902"/>
<path d="M8.29501 2.06499L10.08 5.68499C10.1034 5.73244 10.1379 5.77356 10.1805 5.80489C10.2232 5.83621 10.2727 5.85683 10.325 5.86499L14.325 6.44499C14.3837 6.45603 14.4383 6.4828 14.483 6.52244C14.5277 6.56208 14.5608 6.6131 14.5788 6.67007C14.5967 6.72704 14.5989 6.78782 14.585 6.84593C14.5711 6.90403 14.5418 6.95728 14.5 6.99999L11.61 9.81499C11.572 9.85211 11.5435 9.89786 11.527 9.94835C11.5104 9.99884 11.5063 10.0526 11.515 10.105L12.195 14.105C12.208 14.1684 12.2021 14.2343 12.1779 14.2944C12.1538 14.3545 12.1125 14.4061 12.0592 14.4429C12.0058 14.4797 11.9429 14.5 11.8781 14.5012C11.8134 14.5025 11.7497 14.4847 11.695 14.45L8.12501 12.57C8.07792 12.5455 8.02561 12.5326 7.97251 12.5326C7.91941 12.5326 7.8671 12.5455 7.82001 12.57L4.27501 14.435C4.22032 14.4697 4.15662 14.4875 4.09187 14.4862C4.02712 14.485 3.96417 14.4647 3.91086 14.4279C3.85756 14.3911 3.81625 14.3395 3.79209 14.2794C3.76794 14.2193 3.762 14.1534 3.77501 14.09L4.45501 10.09C4.46369 10.0376 4.45958 9.98384 4.44304 9.93335C4.42651 9.88286 4.39802 9.83712 4.36001 9.79999L1.50001 6.99999C1.4568 6.9571 1.4263 6.90308 1.41188 6.84393C1.39746 6.78477 1.39969 6.72278 1.41833 6.66481C1.43696 6.60684 1.47127 6.55516 1.51745 6.51548C1.56363 6.4758 1.6199 6.44968 1.68001 6.43999L5.68001 5.85999C5.73229 5.85183 5.78183 5.83121 5.82447 5.79989C5.86711 5.76856 5.90159 5.72744 5.92501 5.67999L7.71001 2.05999C7.73838 2.00679 7.78078 1.96237 7.83261 1.93157C7.88445 1.90076 7.94373 1.88475 8.00402 1.88527C8.06432 1.88578 8.12332 1.90281 8.17462 1.93449C8.22592 1.96618 8.26755 2.01131 8.29501 2.06499Z" fill="#FFA902"/>
</svg>
